PathFileType	4	(X/Y/Z)	Kaydara	
DataRate	CameraRate	NumFrames	NumMarkers	Units	OrigDataRate	OrigDataStartFrame	OrigNumFrames	
60.00	60.00	4	74	mm	60.00	1002	200	
Frame#	Time	N_lasi			N_rasi			N_rpsi			N_lpsi			N_fneck			N_bneck			N_fhead			N_rhead			N_lhead			N_rshld			N_relbtop			N_relbext			N_relblow			N_rwrext			N_rwrtop			N_rwrlow			N_lshld			N_lelbext			N_lelbtop			N_lwrext			N_lwrtop			N_lwrlow			N_rtopleg			N_ltopleg			N_rkneefr			N_rkneebk			N_rkneeis			N_lkneefr			N_lknssbk			N_lkneeis			N_rankfr			N_rankis			N_rankbk			N_lankfr			N_lankbk			N_lankis			Z_lasi			Z_rasi			Z_rpsi			Z_lpsi			Z_fneck			Z_bneck			Z_fhead			Z_rhead			Z_lhead			Z_rshld			Z_relbtop			Z_relbext			Z_relblow			Z_rwrext			Z_rwrtop			Z_rwrlow			Z_lshld			Z_lelbext			Z_lelblow			Z_lelbtop			Z_lwrext			Z_lwrtop			Z_lwrlow			Z_rtopleg			Z_ltopleg			Z_rkneefr			Z_rkneebk			Z_rkneeis			Z_lkneefr			Z_lknssbk			Z_lkneeis			Z_rankfr			Z_rankis			Z_lankfr			Z_lankbk			Z_lankis			N_lelblow			Z_rankbk			
		X1	Y1	Z1	X2	Y2	Z2	X3	Y3	Z3	X4	Y4	Z4	X5	Y5	Z5	X6	Y6	Z6	X7	Y7	Z7	X8	Y8	Z8	X9	Y9	Z9	X10	Y10	Z10	X11	Y11	Z11	X12	Y12	Z12	X13	Y13	Z13	X14	Y14	Z14	X15	Y15	Z15	X16	Y16	Z16	X17	Y17	Z17	X18	Y18	Z18	X19	Y19	Z19	X20	Y20	Z20	X21	Y21	Z21	X22	Y22	Z22	X23	Y23	Z23	X24	Y24	Z24	X25	Y25	Z25	X26	Y26	Z26	X27	Y27	Z27	X28	Y28	Z28	X29	Y29	Z29	X30	Y30	Z30	X31	Y31	Z31	X32	Y32	Z32	X33	Y33	Z33	X34	Y34	Z34	X35	Y35	Z35	X36	Y36	Z36	X37	Y37	Z37	X38	Y38	Z38	X39	Y39	Z39	X40	Y40	Z40	X41	Y41	Z41	X42	Y42	Z42	X43	Y43	Z43	X44	Y44	Z44	X45	Y45	Z45	X46	Y46	Z46	X47	Y47	Z47	X48	Y48	Z48	X49	Y49	Z49	X50	Y50	Z50	X51	Y51	Z51	X52	Y52	Z52	X53	Y53	Z53	X54	Y54	Z54	X55	Y55	Z55	X56	Y56	Z56	X57	Y57	Z57	X58	Y58	Z58	X59	Y59	Z59	X60	Y60	Z60	X61	Y61	Z61	X62	Y62	Z62	X63	Y63	Z63	X64	Y64	Z64	X65	Y65	Z65	X66	Y66	Z66	X67	Y67	Z67	X68	Y68	Z68	X69	Y69	Z69	X70	Y70	Z70	X71	Y71	Z71	X72	Y72	Z72	X73	Y73	Z73	X74	Y74	Z74	

51	16.683	246.05673	1010.17395	-705.72189	374.07600	1010.78178	-892.98912	564.92325	1081.46233	-742.76680	404.28116	1063.00629	-561.26369	260.42734	1467.79236	-781.33789	362.42943	1550.99915	-714.52637	127.38126	1661.56403	-765.37003	295.26691	1681.53458	-821.62552	267.72387	1671.38901	-667.11494	472.74666	1464.45709	-909.79355	610.35778	1183.07228	-930.70526	576.49292	1164.06784	-856.48506	537.99633	1174.66934	-943.91991	583.87505	932.00119	-998.51341	544.52591	942.65312	-1028.68347	507.95235	937.07878	-1000.34538	216.09196	1426.50665	-553.05222	267.61871	1121.40121	-510.93845	233.83636	1149.38164	-468.20774	256.72832	894.94591	-429.65385	203.17205	890.97862	-429.80103	200.22745	880.71091	-477.99694	577.55104	887.78145	-856.12061	257.20673	885.22682	-599.50897	567.02747	437.93495	-797.19521	622.58083	523.95046	-731.83304	524.32388	479.71443	-696.01860	208.52617	496.68396	-861.81267	228.71447	491.47068	-754.81964	319.28905	494.57523	-837.75948	706.99394	210.96651	-636.26820	672.05826	232.17516	-573.04070	749.26231	246.61314	-596.96709	192.49670	172.06690	-879.55902	288.95321	169.62358	-883.08273	237.85776	191.78318	-931.03668	-691.74637	967.64023	907.41570	-662.21436	979.34807	1145.61485	-859.84177	1043.12462	1139.75853	-878.38188	1025.91766	949.04953	-620.55569	1412.99225	978.61191	-701.35735	1496.96228	1012.40463	-485.04154	1533.52753	942.57652	-601.93672	1598.92776	1078.99376	-657.73819	1604.92950	959.86534	-672.43813	1362.32590	1236.53725	-705.84671	1069.51637	1310.35675	-704.18037	1053.91769	1241.33835	-626.70837	1094.62486	1295.05966	-598.52173	830.82794	1324.01459	-553.88927	842.90779	1326.18454	-550.94269	851.20827	1278.39073	-753.38417	1390.79407	808.17863	-848.97812	1081.39809	843.97385	-829.45786	1102.55836	756.38985	-902.88696	1093.16544	792.77969	-877.84683	876.69205	732.27951	-837.55188	879.25362	717.45674	-817.87170	872.52792	758.77647	-780.00031	887.56050	1221.28441	-767.89864	890.72754	867.39296	-830.93567	418.64742	1148.85567	-897.93144	465.27409	1190.39703	-880.49080	454.28276	1072.68204	-565.73353	426.59134	949.61845	-641.80817	416.72825	911.40564	-639.92683	423.75446	1030.74501	-945.53467	174.82586	1141.51581	-997.79472	191.02062	1081.91711	-501.35456	187.15870	978.22197	-556.07143	159.34033	929.35173	-565.39715	151.51150	995.26718	232.53813	1122.73163	-546.62926	-1021.21117	189.13961	1149.46655 
52	16.700	228.57647	1012.30362	-713.08167	352.32803	1012.98164	-901.60812	546.05419	1082.26028	-755.72029	388.64605	1065.23109	-570.21889	242.54126	1469.85260	-788.73245	345.20283	1552.68524	-721.97807	109.70181	1662.57324	-771.25557	277.13812	1683.49503	-828.25684	250.27813	1672.85721	-673.58498	454.52263	1467.33978	-918.47603	593.92414	1186.72440	-939.83192	560.01076	1167.77260	-866.73683	521.36768	1178.06213	-952.75368	566.02287	935.38940	-1007.17880	526.33038	946.22757	-1036.81778	490.08873	940.80971	-1008.31482	198.93425	1427.47543	-561.04530	253.20026	1120.50293	-526.34972	217.85200	1147.57370	-483.74619	242.88279	892.77969	-449.69822	189.41696	888.06648	-451.90819	188.65602	878.80577	-500.42999	555.55664	887.99423	-871.07147	242.20665	886.54114	-607.19086	545.19524	436.61060	-825.65628	599.92493	523.86829	-759.84772	501.92440	477.02446	-724.20212	193.67552	496.35715	-870.90958	212.19173	492.64809	-763.37471	304.04608	495.54501	-844.60945	693.14384	217.65171	-657.75520	656.49139	238.31715	-595.54455	733.48000	255.45401	-618.67157	185.12735	169.91837	-883.57841	281.67654	169.47073	-883.93013	231.79672	189.13069	-933.97224	-675.55725	964.27750	903.91716	-646.75369	978.71971	1144.62219	-842.71378	1040.60265	1137.10922	-862.77512	1021.48346	947.34840	-607.25952	1410.35797	970.87242	-687.84775	1494.17572	1005.38864	-472.73777	1530.77271	931.85715	-587.09167	1596.65253	1070.42664	-644.40796	1602.12250	952.20222	-656.16264	1360.75775	1229.77501	-690.21133	1067.69180	1304.68292	-687.92648	1052.01767	1235.44006	-611.42437	1093.27682	1289.74335	-581.11488	829.58420	1316.87286	-536.56578	842.18735	1319.33136	-533.51105	850.58167	1271.48415	-741.93787	1386.17096	802.40639	-836.77872	1076.36642	844.49631	-816.01860	1096.46996	754.93240	-889.04442	1087.16820	792.35016	-864.42116	870.31738	733.59100	-824.24492	872.66312	718.38486	-804.44786	866.26457	760.02464	-764.40285	885.96535	1219.39713	-750.12863	888.25394	865.51659	-818.80470	417.01138	1149.89075	-885.12314	465.09506	1191.05202	-867.31125	453.98140	1074.02847	-547.16225	421.81946	949.49913	-622.96234	413.58585	909.44168	-622.28199	422.30656	1029.69421	-940.99228	175.76801	1142.73422	-992.40585	193.82759	1082.83691	-494.03503	178.87114	984.23660	-549.57367	152.43958	935.77835	-559.55467	146.89833	1001.43250	219.68557	1122.74307	-561.91334	-1016.01456	192.09366	1150.69870 
53	16.717	210.65533	1014.02206	-719.49425	330.76309	1014.70528	-909.43008	525.15957	1082.20322	-765.80750	373.87169	1066.07193	-579.66110	225.11345	1471.45462	-796.13838	328.63701	1553.82324	-729.90204	92.71040	1663.46756	-777.00027	259.70461	1685.21530	-834.84138	233.65728	1673.87375	-680.06477	436.35532	1469.57275	-927.42828	577.78339	1189.80644	-949.04091	544.09931	1171.10802	-875.63484	505.02571	1180.89272	-961.90239	547.82776	938.18466	-1015.85876	507.82101	949.15077	-1045.03967	471.90376	943.96957	-1016.11862	182.23907	1428.78143	-569.10561	238.13124	1120.30197	-541.59924	200.82067	1146.34445	-498.91666	226.42191	891.11710	-468.91094	173.64140	885.85014	-474.60556	175.65399	877.77016	-523.31959	533.39455	887.61581	-885.54153	227.32147	887.06909	-614.50890	520.80784	435.56828	-855.33508	575.90740	523.65082	-789.01573	477.07672	473.82309	-753.02338	179.93631	494.96403	-878.99681	196.91063	492.87533	-771.20285	289.90135	495.67680	-851.10870	677.70531	224.77631	-680.42343	639.89506	245.11869	-619.52942	716.25618	265.23365	-642.73216	178.20835	167.68721	-887.52922	274.70589	168.89118	-884.79553	226.48575	185.98988	-936.82549	-657.69936	961.28105	900.37407	-629.19792	977.36153	1141.27563	-825.78003	1038.27950	1133.71613	-845.33813	1017.22977	943.94386	-593.92113	1408.00293	962.46170	-674.36256	1491.81442	998.07732	-460.85182	1528.65509	920.50056	-572.32132	1594.71298	1061.26709	-631.46397	1599.57230	943.81569	-639.94167	1359.65088	1222.88582	-675.20027	1066.67061	1298.84644	-672.67174	1051.31721	1229.65096	-596.13461	1092.37587	1283.88428	-564.24572	828.82835	1309.22882	-519.81770	841.80229	1311.95755	-516.68335	850.71190	1264.38026	-730.23476	1381.92551	796.06293	-820.50850	1071.89392	841.90529	-802.57347	1090.92300	752.77420	-874.98734	1081.61064	791.31790	-850.11642	864.38377	734.64409	-809.91570	866.59828	719.16672	-789.74869	860.62172	760.36209	-747.83730	884.27513	1216.45042	-730.71754	885.78888	862.53975	-803.71819	414.92722	1151.19331	-869.23523	464.71485	1192.24564	-851.52931	452.77740	1075.41016	-529.79507	416.40728	948.92776	-605.52490	410.73101	906.47690	-606.59142	420.21156	1027.04826	-935.08949	176.97527	1144.38606	-985.48286	197.02265	1084.32495	-488.52051	171.68985	989.76997	-543.53420	147.21665	939.91547	-556.12293	142.57610	1005.15373	206.57888	1123.57056	-577.24194	-1009.72076	196.67646	1152.24495 
54	16.733	193.11502	1015.04341	-725.26802	309.82016	1015.72395	-916.57875	507.94380	1081.72935	-776.56151	359.43668	1065.91324	-587.91527	208.44090	1472.57416	-803.44208	312.67292	1554.71893	-737.97340	76.33245	1664.28192	-782.42027	242.79522	1686.75873	-841.48209	217.98956	1674.38950	-686.51054	418.19893	1470.64835	-936.84097	561.78753	1191.97266	-958.58231	529.07852	1173.46291	-885.28893	489.00517	1182.82234	-971.42792	529.34559	940.08018	-1024.69872	489.04106	951.25511	-1053.47481	453.46081	946.45439	-1024.11980	166.70774	1430.41473	-576.93108	222.43261	1120.34752	-556.48190	182.86415	1145.41229	-513.79932	208.05611	889.79965	-488.25279	155.82530	884.16267	-497.66048	161.22578	877.56218	-546.24214	511.75312	887.16728	-900.14130	212.62703	886.54930	-621.67042	494.35341	435.27866	-884.26071	550.13870	523.64929	-818.29842	450.82062	471.20274	-781.30043	166.56656	492.97279	-886.00746	183.30116	491.77620	-778.15292	276.24437	495.00259	-857.29095	659.63966	232.45886	-705.08263	620.82684	253.02805	-644.31244	697.09732	275.12383	-669.01245	172.36710	165.11990	-892.00691	268.97861	168.27665	-887.08466	221.83357	183.05185	-940.45563	-638.79131	958.91808	896.55960	-611.04588	976.30211	1137.23663	-807.69859	1035.76508	1128.55408	-826.09383	1013.64639	938.34892	-580.50831	1406.19370	953.84743	-660.80063	1489.70673	990.41824	-449.34677	1527.30865	908.42552	-557.47158	1593.72528	1051.53488	-619.63108	1597.56653	935.71144	-623.68195	1359.14719	1215.22881	-659.96613	1066.15913	1292.72125	-657.39899	1050.86708	1223.39279	-580.89615	1092.04697	1277.58255	-547.70283	828.60260	1301.43219	-503.24409	841.80313	1304.21051	-500.53471	851.05957	1256.67580	-718.37875	1377.93259	789.36752	-805.07027	1067.49382	839.49196	-788.99109	1085.73708	750.27679	-860.76401	1076.29723	789.78050	-834.83589	858.70590	735.38971	-794.78844	860.91454	719.48418	-774.38499	855.62889	760.74707	-729.59595	882.51762	1212.32330	-710.13321	883.30666	858.23151	-785.97031	411.92963	1153.70758	-851.05850	463.93459	1193.98582	-833.33923	451.06903	1077.29408	-514.56650	411.49071	948.37715	-589.66064	408.30673	903.64906	-594.56413	416.86310	1023.68576	-927.60101	178.78687	1146.63361	-976.67160	200.89596	1086.51970	-478.85429	168.02092	991.08788	-531.78143	144.33414	938.40294	-547.33150	138.95185	1002.64946	193.13810	1124.59358	-592.12460	-1000.92041	201.20493	1154.09958 
